<svg xmlns="http://www.w3.org/2000/svg" xmlns:xlink="http://www.w3.org/1999/xlink" width="500" zoomAndPan="magnify" viewBox="0 0 375 374.999991" height="500" preserveAspectRatio="xMidYMid meet" version="1.0"><defs><g/></defs><rect x="-37.5" width="450" fill="#ffffff" y="-37.499999" height="449.999989" fill-opacity="1"/><rect x="-37.5" width="450" fill="#2f372e" y="-37.499999" height="449.999989" fill-opacity="1"/><path stroke-linecap="butt" transform="matrix(0.75, 0, 0, 0.75, 78.242284, 100.874993)" fill="none" stroke-linejoin="miter" d="M 83.432168 31.661469 L 83.432168 91.968765 C 86.588418 88.333348 90.48946 85.593764 95.140502 83.750014 C 99.822794 81.880223 104.61967 80.942722 109.536337 80.942722 C 121.463421 80.942722 131.473838 85.244806 139.572797 93.854182 C 147.697797 102.437516 151.765506 113.078141 151.765506 125.776059 C 151.765506 138.71356 147.671756 149.458352 139.494672 158.015644 C 131.338421 166.541686 121.301962 170.807312 109.380087 170.807312 C 103.791545 170.807312 98.723836 169.739603 94.182169 167.598978 C 89.635294 165.458353 86.161335 162.479186 83.755085 158.656269 L 83.432168 158.656269 L 83.432168 168.00002 L 53.520708 168.00002 L 53.520708 31.661469 Z M 101.640503 144.822935 C 107.333211 144.822935 111.958212 143.166685 115.515504 139.848976 C 119.093629 136.510434 120.885296 131.869809 120.885296 125.937517 C 120.885296 120.375017 119.119671 115.817725 115.593629 112.260433 C 112.093628 108.677099 107.385295 106.885433 101.479044 106.885433 C 95.890502 106.885433 91.317585 108.677099 87.765502 112.260433 C 84.20821 115.817725 82.432168 120.375017 82.432168 125.937517 C 82.432168 131.630226 84.20821 136.203143 87.765502 139.65106 C 91.317585 143.098977 95.942586 144.822935 101.640503 144.822935 Z M 101.640503 144.822935 " stroke="#31fd9b" stroke-width="6.159563" stroke-opacity="1" stroke-miterlimit="4"/><g fill="#2f372e" fill-opacity="1"><g transform="translate(111.734469, 226.874985)"><g><path d="M 29.078125 -102.25 L 29.078125 -57.03125 C 31.453125 -59.738281 34.382812 -61.789062 37.875 -63.1875 C 41.363281 -64.59375 44.957031 -65.296875 48.65625 -65.296875 C 57.613281 -65.296875 65.128906 -62.070312 71.203125 -55.625 C 77.273438 -49.175781 80.3125 -41.1875 80.3125 -31.65625 C 80.3125 -21.96875 77.253906 -13.921875 71.140625 -7.515625 C 65.023438 -1.109375 57.488281 2.09375 48.53125 2.09375 C 44.34375 2.09375 40.546875 1.296875 37.140625 -0.296875 C 33.734375 -1.898438 31.125 -4.140625 29.3125 -7.015625 L 29.078125 -7.015625 L 29.078125 0 L 6.65625 0 L 6.65625 -102.25 Z M 42.75 -17.375 C 47.019531 -17.375 50.488281 -18.625 53.15625 -21.125 C 55.820312 -23.632812 57.15625 -27.101562 57.15625 -31.53125 C 57.15625 -35.71875 55.84375 -39.144531 53.21875 -41.8125 C 50.59375 -44.488281 47.0625 -45.828125 42.625 -45.828125 C 38.4375 -45.828125 35.003906 -44.488281 32.328125 -41.8125 C 29.660156 -39.144531 28.328125 -35.71875 28.328125 -31.53125 C 28.328125 -27.257812 29.660156 -23.832031 32.328125 -21.25 C 35.003906 -18.664062 38.476562 -17.375 42.75 -17.375 Z M 42.75 -17.375 "/></g></g></g><path stroke-linecap="butt" transform="matrix(0.75, 0, 0, 0.75, 145.745313, 102.374993)" fill="none" stroke-linejoin="miter" d="M 117.485423 92.60939 L 117.485423 83.750014 L 147.396884 83.750014 L 147.396884 160.619811 C 147.396884 193.583355 131.183341 210.062523 98.756255 210.062523 C 85.948963 210.062523 74.92292 206.989606 65.67292 200.843772 C 56.422919 194.718772 51.412502 187.062521 50.636461 177.864604 L 84.162504 177.864604 C 84.933338 180.484396 86.657296 182.531271 89.33438 184.000021 C 92.006255 185.494813 95.042713 186.244813 98.433339 186.244813 C 104.907297 186.244813 109.688548 184.401063 112.792715 180.713562 C 115.917715 177.046896 117.485423 170.848979 117.485423 162.104186 L 117.485423 158.135436 C 109.839589 165.807312 100.922922 169.645853 90.735422 169.645853 C 78.678129 169.645853 68.73542 165.619812 60.902086 157.572936 C 53.068752 149.52606 49.152085 139.208351 49.152085 126.614601 C 49.152085 113.463558 53.308336 102.567724 61.626045 93.937515 C 69.964587 85.276056 80.214587 80.942723 92.381255 80.942723 C 103.422922 80.942723 111.68334 84.833348 117.162507 92.60939 Z M 99.277089 144.18231 C 104.969797 144.18231 109.594798 142.458352 113.15209 139.005226 C 116.709382 135.55731 118.485423 130.989601 118.485423 125.291684 C 118.485423 119.70835 116.735423 115.135433 113.230215 111.578141 C 109.730214 108.026058 105.027089 106.244808 99.11563 106.244808 C 93.532297 106.244808 88.943755 108.026058 85.365629 111.578141 C 81.808338 115.135433 80.032296 119.70835 80.032296 125.291684 C 80.032296 130.989601 81.808338 135.55731 85.365629 139.005226 C 88.943755 142.458352 93.58438 144.18231 99.277089 144.18231 Z M 99.277089 144.18231 " stroke="#31fd9b" stroke-width="6.1596" stroke-opacity="1" stroke-miterlimit="4"/><g fill="#2f372e" fill-opacity="1"><g transform="translate(179.542186, 228.374985)"><g><path d="M 54.328125 -56.546875 L 54.328125 -63.1875 L 76.75 -63.1875 L 76.75 -5.546875 C 76.75 19.171875 64.59375 31.53125 40.28125 31.53125 C 30.675781 31.53125 22.398438 29.226562 15.453125 24.625 C 8.515625 20.03125 4.757812 14.285156 4.1875 7.390625 L 29.3125 7.390625 C 29.894531 9.359375 31.191406 10.894531 33.203125 12 C 35.210938 13.113281 37.488281 13.671875 40.03125 13.671875 C 44.875 13.671875 48.46875 12.296875 50.8125 9.546875 C 53.15625 6.796875 54.328125 2.132812 54.328125 -4.4375 L 54.328125 -7.390625 C 48.578125 -1.640625 41.882812 1.234375 34.25 1.234375 C 25.21875 1.234375 17.765625 -1.78125 11.890625 -7.8125 C 6.015625 -13.851562 3.078125 -21.597656 3.078125 -31.046875 C 3.078125 -40.898438 6.195312 -49.070312 12.4375 -55.5625 C 18.675781 -62.050781 26.359375 -65.296875 35.484375 -65.296875 C 43.773438 -65.296875 49.972656 -62.378906 54.078125 -56.546875 Z M 40.65625 -17.859375 C 44.925781 -17.859375 48.394531 -19.148438 51.0625 -21.734375 C 53.726562 -24.328125 55.0625 -27.757812 55.0625 -32.03125 C 55.0625 -36.21875 53.75 -39.644531 51.125 -42.3125 C 48.5 -44.976562 44.96875 -46.3125 40.53125 -46.3125 C 36.34375 -46.3125 32.910156 -44.976562 30.234375 -42.3125 C 27.566406 -39.644531 26.234375 -36.21875 26.234375 -32.03125 C 26.234375 -27.757812 27.566406 -24.328125 30.234375 -21.734375 C 32.910156 -19.148438 36.382812 -17.859375 40.65625 -17.859375 Z M 40.65625 -17.859375 "/></g></g></g><g fill="#ffffff" fill-opacity="1"><g transform="translate(145.745313, 135.564605)"><g><path d="M 6.125 -13.328125 C 8.71875 -13.328125 10.019531 -12.171875 10.03125 -9.859375 C 10.03125 -8.535156 9.546875 -7.628906 8.578125 -7.140625 L 8.578125 -7.109375 C 10.390625 -6.847656 11.296875 -5.71875 11.296875 -3.71875 C 11.296875 -2.5625 10.878906 -1.648438 10.046875 -0.984375 C 9.222656 -0.328125 8.046875 0 6.515625 0 L 1.125 0 L 1.125 -13.328125 Z M 4.59375 -8.09375 L 4.96875 -8.09375 C 5.664062 -8.09375 6.15625 -8.195312 6.4375 -8.40625 C 6.71875 -8.625 6.859375 -8.953125 6.859375 -9.390625 C 6.859375 -9.816406 6.71875 -10.132812 6.4375 -10.34375 C 6.164062 -10.5625 5.664062 -10.671875 4.9375 -10.671875 L 4.59375 -10.671875 Z M 4.59375 -2.65625 L 5.03125 -2.65625 C 6.144531 -2.65625 6.882812 -2.773438 7.25 -3.015625 C 7.613281 -3.253906 7.796875 -3.601562 7.796875 -4.0625 C 7.796875 -4.550781 7.625 -4.914062 7.28125 -5.15625 C 6.945312 -5.394531 6.390625 -5.515625 5.609375 -5.515625 L 4.59375 -5.515625 Z M 4.59375 -2.65625 "/></g></g></g><g fill="#ffffff" fill-opacity="1"><g transform="translate(157.697515, 135.564605)"><g><path d="M 8.828125 -13.328125 L 13.859375 0 L 10.15625 0 L 9.296875 -2.3125 L 4.53125 -2.3125 L 3.609375 0 L -0.078125 0 L 5.046875 -13.328125 Z M 5.484375 -4.96875 L 8.359375 -4.96875 L 6.9375 -9.203125 L 6.90625 -9.203125 Z M 5.484375 -4.96875 "/></g></g></g><g fill="#ffffff" fill-opacity="1"><g transform="translate(171.485799, 135.564605)"><g><path d="M 6.359375 -13.328125 C 7.765625 -13.328125 8.878906 -12.96875 9.703125 -12.25 C 10.523438 -11.539062 10.9375 -10.53125 10.9375 -9.21875 C 10.9375 -8.25 10.675781 -7.421875 10.15625 -6.734375 C 9.644531 -6.054688 8.929688 -5.628906 8.015625 -5.453125 L 12.21875 0 L 7.90625 0 L 4.625 -5.125 L 4.59375 -5.125 L 4.59375 0 L 1.125 0 L 1.125 -13.328125 Z M 4.59375 -7.34375 L 4.890625 -7.34375 C 5.742188 -7.34375 6.363281 -7.476562 6.75 -7.75 C 7.132812 -8.03125 7.328125 -8.453125 7.328125 -9.015625 C 7.328125 -9.578125 7.132812 -9.992188 6.75 -10.265625 C 6.375 -10.535156 5.753906 -10.671875 4.890625 -10.671875 L 4.59375 -10.671875 Z M 4.59375 -7.34375 "/></g></g></g><g fill="#ffffff" fill-opacity="1"><g transform="translate(183.490958, 135.564605)"><g><path d="M 9.296875 -13.328125 L 9.296875 -10.390625 L 6.4375 -10.390625 L 6.4375 0 L 2.96875 0 L 2.96875 -10.390625 L 0.109375 -10.390625 L 0.109375 -13.328125 Z M 9.296875 -13.328125 "/></g></g></g><g fill="#ffffff" fill-opacity="1"><g transform="translate(192.900881, 135.564605)"><g><path d="M 5.265625 -13.328125 L 5.265625 -9.796875 L 7.265625 -11.0625 L 7.265625 -8.484375 L 5.265625 -7.234375 L 5.265625 -2.9375 L 9.421875 -2.9375 L 9.421875 0 L 1.796875 0 L 1.796875 -5.03125 L 0.328125 -4.125 L 0.328125 -6.625 L 1.796875 -7.5625 L 1.796875 -13.328125 Z M 5.265625 -13.328125 "/></g></g></g><g fill="#ffffff" fill-opacity="1"><g transform="translate(202.310804, 135.564605)"><g><path d="M 15.203125 -6.90625 C 15.203125 -5.5 14.882812 -4.226562 14.25 -3.09375 C 13.613281 -1.96875 12.726562 -1.097656 11.59375 -0.484375 C 10.457031 0.128906 9.238281 0.4375 7.9375 0.4375 C 6.488281 0.4375 5.191406 0.125 4.046875 -0.5 C 2.898438 -1.132812 2.015625 -2.003906 1.390625 -3.109375 C 0.765625 -4.210938 0.453125 -5.425781 0.453125 -6.75 C 0.453125 -7.96875 0.738281 -9.097656 1.3125 -10.140625 C 1.882812 -11.191406 2.757812 -12.054688 3.9375 -12.734375 C 5.113281 -13.421875 6.410156 -13.765625 7.828125 -13.765625 C 9.117188 -13.765625 10.332031 -13.46875 11.46875 -12.875 C 12.613281 -12.28125 13.519531 -11.453125 14.1875 -10.390625 C 14.863281 -9.335938 15.203125 -8.175781 15.203125 -6.90625 Z M 7.828125 -2.921875 C 8.898438 -2.921875 9.796875 -3.304688 10.515625 -4.078125 C 11.234375 -4.859375 11.59375 -5.796875 11.59375 -6.890625 C 11.59375 -7.804688 11.21875 -8.617188 10.46875 -9.328125 C 9.726562 -10.046875 8.84375 -10.40625 7.8125 -10.40625 C 6.832031 -10.40625 5.96875 -10.0625 5.21875 -9.375 C 4.46875 -8.6875 4.082031 -7.859375 4.0625 -6.890625 C 4.0625 -5.742188 4.425781 -4.796875 5.15625 -4.046875 C 5.882812 -3.296875 6.773438 -2.921875 7.828125 -2.921875 Z M 7.828125 -2.921875 "/></g></g></g><g fill="#ffffff" fill-opacity="1"><g transform="translate(217.970483, 135.564605)"><g><path d="M 6.015625 -13.328125 L 8.71875 -6.203125 L 11.578125 -13.328125 L 15.015625 -13.328125 L 17.03125 0 L 13.578125 0 L 12.59375 -7.671875 L 12.5625 -7.671875 L 9.359375 0 L 7.984375 0 L 4.9375 -7.671875 L 4.890625 -7.671875 L 3.78125 0 L 0.328125 0 L 2.59375 -13.328125 Z M 6.015625 -13.328125 "/></g></g></g><g fill="#ffffff" fill-opacity="1"><g transform="translate(235.325002, 135.564605)"><g><path d="M 4.59375 -13.328125 L 4.59375 0 L 1.125 0 L 1.125 -13.328125 Z M 4.59375 -13.328125 "/></g></g></g><g fill="#ffffff" fill-opacity="1"><g transform="translate(241.045104, 135.564605)"><g><path d="M 8.71875 -13.328125 L 8.71875 -10.390625 L 4.59375 -10.390625 L 4.59375 -8.171875 L 8.5 -8.171875 L 8.5 -5.234375 L 4.59375 -5.234375 L 4.59375 -2.9375 L 8.71875 -2.9375 L 8.71875 0 L 1.125 0 L 1.125 -13.328125 Z M 8.71875 -13.328125 "/></g></g></g><g fill="#ffffff" fill-opacity="1"><g transform="translate(250.755154, 135.564605)"><g><path d="M 7.578125 -13.328125 L 7.578125 -4.265625 C 7.578125 -2.835938 7.191406 -1.707031 6.421875 -0.875 C 5.648438 -0.0507812 4.570312 0.359375 3.1875 0.359375 C 1.75 0.359375 0.597656 -0.296875 -0.265625 -1.609375 L 1.734375 -3.71875 C 2.296875 -2.957031 2.757812 -2.578125 3.125 -2.578125 C 3.476562 -2.578125 3.734375 -2.710938 3.890625 -2.984375 C 4.046875 -3.265625 4.125 -3.707031 4.125 -4.3125 L 4.125 -13.328125 Z M 7.578125 -13.328125 "/></g></g></g><g fill="#ffffff" fill-opacity="1"><g transform="translate(145.745313, 151.754641)"><g><path d="M 7.6875 -13.765625 C 10.507812 -13.765625 12.515625 -12.519531 13.703125 -10.03125 L 10.40625 -8.65625 C 10.144531 -9.332031 9.765625 -9.851562 9.265625 -10.21875 C 8.773438 -10.59375 8.195312 -10.78125 7.53125 -10.78125 C 6.519531 -10.78125 5.6875 -10.375 5.03125 -9.5625 C 4.382812 -8.75 4.0625 -7.753906 4.0625 -6.578125 C 4.0625 -5.859375 4.207031 -5.171875 4.5 -4.515625 C 4.789062 -3.867188 5.195312 -3.351562 5.71875 -2.96875 C 6.25 -2.59375 6.867188 -2.40625 7.578125 -2.40625 C 8.390625 -2.40625 9.039062 -2.609375 9.53125 -3.015625 C 10.019531 -3.429688 10.300781 -4 10.375 -4.71875 L 7.546875 -4.71875 L 7.546875 -7.4375 L 14.421875 -7.4375 C 14.398438 -5.789062 14.210938 -4.523438 13.859375 -3.640625 C 13.503906 -2.753906 13.007812 -2 12.375 -1.375 C 11.75 -0.75 11.035156 -0.289062 10.234375 0 C 9.429688 0.289062 8.539062 0.4375 7.5625 0.4375 C 5.4375 0.4375 3.71875 -0.210938 2.40625 -1.515625 C 1.101562 -2.828125 0.453125 -4.519531 0.453125 -6.59375 C 0.453125 -8.738281 1.113281 -10.46875 2.4375 -11.78125 C 3.757812 -13.101562 5.507812 -13.765625 7.6875 -13.765625 Z M 7.6875 -13.765625 "/></g></g></g><g fill="#ffffff" fill-opacity="1"><g transform="translate(160.610524, 151.754641)"><g><path d="M 6.359375 -13.328125 C 7.765625 -13.328125 8.878906 -12.96875 9.703125 -12.25 C 10.523438 -11.539062 10.9375 -10.53125 10.9375 -9.21875 C 10.9375 -8.25 10.675781 -7.421875 10.15625 -6.734375 C 9.644531 -6.054688 8.929688 -5.628906 8.015625 -5.453125 L 12.21875 0 L 7.90625 0 L 4.625 -5.125 L 4.59375 -5.125 L 4.59375 0 L 1.125 0 L 1.125 -13.328125 Z M 4.59375 -7.34375 L 4.890625 -7.34375 C 5.742188 -7.34375 6.363281 -7.476562 6.75 -7.75 C 7.132812 -8.03125 7.328125 -8.453125 7.328125 -9.015625 C 7.328125 -9.578125 7.132812 -9.992188 6.75 -10.265625 C 6.375 -10.535156 5.753906 -10.671875 4.890625 -10.671875 L 4.59375 -10.671875 Z M 4.59375 -7.34375 "/></g></g></g><g fill="#ffffff" fill-opacity="1"><g transform="translate(172.615683, 151.754641)"><g><path d="M 8.71875 -13.328125 L 8.71875 -10.390625 L 4.59375 -10.390625 L 4.59375 -8.171875 L 8.5 -8.171875 L 8.5 -5.234375 L 4.59375 -5.234375 L 4.59375 -2.9375 L 8.71875 -2.9375 L 8.71875 0 L 1.125 0 L 1.125 -13.328125 Z M 8.71875 -13.328125 "/></g></g></g><g fill="#ffffff" fill-opacity="1"><g transform="translate(182.325734, 151.754641)"><g><path d="M 4.59375 -13.328125 L 4.59375 -2.9375 L 8.75 -2.9375 L 8.75 0 L 1.125 0 L 1.125 -13.328125 Z M 4.59375 -13.328125 "/></g></g></g><g fill="#ffffff" fill-opacity="1"><g transform="translate(191.064786, 151.754641)"><g><path d="M 8.828125 -13.328125 L 13.859375 0 L 10.15625 0 L 9.296875 -2.3125 L 4.53125 -2.3125 L 3.609375 0 L -0.078125 0 L 5.046875 -13.328125 Z M 5.484375 -4.96875 L 8.359375 -4.96875 L 6.9375 -9.203125 L 6.90625 -9.203125 Z M 5.484375 -4.96875 "/></g></g></g></svg>