<svg xmlns="http://www.w3.org/2000/svg" xmlns:xlink="http://www.w3.org/1999/xlink" width="500" zoomAndPan="magnify" viewBox="0 0 375 374.999991" height="500" preserveAspectRatio="xMidYMid meet" version="1.0"><defs><g/><clipPath id="ddbf718b31"><path d="M 110.746094 110.746094 L 264.253906 110.746094 L 264.253906 264.253906 L 110.746094 264.253906 Z M 110.746094 110.746094 " clip-rule="nonzero"/></clipPath><clipPath id="5abbc6dbcc"><path d="M 127.996094 110.746094 L 247.003906 110.746094 C 256.53125 110.746094 264.253906 118.46875 264.253906 127.996094 L 264.253906 247.003906 C 264.253906 256.53125 256.53125 264.253906 247.003906 264.253906 L 127.996094 264.253906 C 118.46875 264.253906 110.746094 256.53125 110.746094 247.003906 L 110.746094 127.996094 C 110.746094 118.46875 118.46875 110.746094 127.996094 110.746094 Z M 127.996094 110.746094 " clip-rule="nonzero"/></clipPath></defs><g clip-path="url(#ddbf718b31)"><g clip-path="url(#5abbc6dbcc)"><path fill="#31fd9b" d="M 110.746094 110.746094 L 264.253906 110.746094 L 264.253906 264.253906 L 110.746094 264.253906 Z M 110.746094 110.746094 " fill-opacity="1" fill-rule="nonzero"/></g></g><g fill="#2f372e" fill-opacity="1"><g transform="translate(127.086735, 221.162966)"><g><path d="M 25.40625 -89.359375 L 25.40625 -49.84375 C 27.488281 -52.207031 30.050781 -54 33.09375 -55.21875 C 36.144531 -56.445312 39.289062 -57.0625 42.53125 -57.0625 C 50.351562 -57.0625 56.914062 -54.242188 62.21875 -48.609375 C 67.53125 -42.972656 70.1875 -35.992188 70.1875 -27.671875 C 70.1875 -19.203125 67.515625 -12.164062 62.171875 -6.5625 C 56.828125 -0.96875 50.242188 1.828125 42.421875 1.828125 C 38.753906 1.828125 35.429688 1.128906 32.453125 -0.265625 C 29.472656 -1.671875 27.195312 -3.628906 25.625 -6.140625 L 25.40625 -6.140625 L 25.40625 0 L 5.8125 0 L 5.8125 -89.359375 Z M 37.359375 -15.171875 C 41.085938 -15.171875 44.117188 -16.265625 46.453125 -18.453125 C 48.785156 -20.648438 49.953125 -23.6875 49.953125 -27.5625 C 49.953125 -31.21875 48.800781 -34.210938 46.5 -36.546875 C 44.207031 -38.878906 41.125 -40.046875 37.25 -40.046875 C 33.59375 -40.046875 30.597656 -38.878906 28.265625 -36.546875 C 25.929688 -34.210938 24.765625 -31.21875 24.765625 -27.5625 C 24.765625 -23.832031 25.929688 -20.832031 28.265625 -18.5625 C 30.597656 -16.300781 33.628906 -15.171875 37.359375 -15.171875 Z M 37.359375 -15.171875 "/></g></g></g><g fill="#2f372e" fill-opacity="1"><g transform="translate(174.740807, 222.473942)"><g><path d="M 47.46875 -49.421875 L 47.46875 -55.234375 L 67.0625 -55.234375 L 67.0625 -4.84375 C 67.0625 16.757812 56.441406 27.5625 35.203125 27.5625 C 26.804688 27.5625 19.570312 25.550781 13.5 21.53125 C 7.4375 17.507812 4.15625 12.484375 3.65625 6.453125 L 25.625 6.453125 C 26.125 8.179688 27.253906 9.53125 29.015625 10.5 C 30.773438 11.46875 32.765625 11.953125 34.984375 11.953125 C 39.222656 11.953125 42.363281 10.75 44.40625 8.34375 C 46.445312 5.9375 47.46875 1.863281 47.46875 -3.875 L 47.46875 -6.453125 C 42.445312 -1.429688 36.597656 1.078125 29.921875 1.078125 C 22.035156 1.078125 15.523438 -1.554688 10.390625 -6.828125 C 5.253906 -12.109375 2.6875 -18.875 2.6875 -27.125 C 2.6875 -35.738281 5.414062 -42.878906 10.875 -48.546875 C 16.332031 -54.222656 23.039062 -57.0625 31 -57.0625 C 38.25 -57.0625 43.671875 -54.515625 47.265625 -49.421875 Z M 35.53125 -15.609375 C 39.257812 -15.609375 42.289062 -16.738281 44.625 -19 C 46.957031 -21.257812 48.125 -24.253906 48.125 -27.984375 C 48.125 -31.648438 46.972656 -34.648438 44.671875 -36.984375 C 42.378906 -39.316406 39.296875 -40.484375 35.421875 -40.484375 C 31.753906 -40.484375 28.753906 -39.316406 26.421875 -36.984375 C 24.097656 -34.648438 22.9375 -31.648438 22.9375 -27.984375 C 22.9375 -24.253906 24.097656 -21.257812 26.421875 -19 C 28.753906 -16.738281 31.789062 -15.609375 35.53125 -15.609375 Z M 35.53125 -15.609375 "/></g></g></g><g fill="#2f372e" fill-opacity="1"><g transform="translate(154.03079, 142.346418)"><g><path d="M 4.828125 -10.5 C 6.867188 -10.5 7.894531 -9.585938 7.90625 -7.765625 C 7.90625 -6.722656 7.519531 -6.007812 6.75 -5.625 L 6.75 -5.59375 C 8.175781 -5.394531 8.890625 -4.503906 8.890625 -2.921875 C 8.890625 -2.015625 8.566406 -1.300781 7.921875 -0.78125 C 7.273438 -0.257812 6.347656 0 5.140625 0 L 0.890625 0 L 0.890625 -10.5 Z M 3.625 -6.375 L 3.90625 -6.375 C 4.457031 -6.375 4.84375 -6.457031 5.0625 -6.625 C 5.289062 -6.789062 5.40625 -7.046875 5.40625 -7.390625 C 5.40625 -7.734375 5.296875 -7.988281 5.078125 -8.15625 C 4.859375 -8.320312 4.460938 -8.40625 3.890625 -8.40625 L 3.625 -8.40625 Z M 3.625 -2.09375 L 3.96875 -2.09375 C 4.84375 -2.09375 5.421875 -2.1875 5.703125 -2.375 C 5.992188 -2.5625 6.140625 -2.835938 6.140625 -3.203125 C 6.140625 -3.578125 6.003906 -3.859375 5.734375 -4.046875 C 5.472656 -4.242188 5.03125 -4.34375 4.40625 -4.34375 L 3.625 -4.34375 Z M 3.625 -2.09375 "/></g></g></g><g fill="#2f372e" fill-opacity="1"><g transform="translate(163.448998, 142.346418)"><g><path d="M 6.96875 -10.5 L 10.921875 0 L 8 0 L 7.328125 -1.828125 L 3.5625 -1.828125 L 2.84375 0 L -0.0625 0 L 3.984375 -10.5 Z M 4.3125 -3.90625 L 6.578125 -3.90625 L 5.46875 -7.25 L 5.4375 -7.25 Z M 4.3125 -3.90625 "/></g></g></g><g fill="#2f372e" fill-opacity="1"><g transform="translate(174.31402, 142.346418)"><g><path d="M 5.015625 -10.5 C 6.117188 -10.5 6.992188 -10.21875 7.640625 -9.65625 C 8.296875 -9.09375 8.625 -8.296875 8.625 -7.265625 C 8.625 -6.492188 8.414062 -5.84375 8 -5.3125 C 7.59375 -4.78125 7.035156 -4.441406 6.328125 -4.296875 L 9.625 0 L 6.21875 0 L 3.640625 -4.03125 L 3.625 -4.03125 L 3.625 0 L 0.890625 0 L 0.890625 -10.5 Z M 3.625 -5.796875 L 3.859375 -5.796875 C 4.523438 -5.796875 5.007812 -5.898438 5.3125 -6.109375 C 5.625 -6.328125 5.78125 -6.65625 5.78125 -7.09375 C 5.78125 -7.539062 5.628906 -7.867188 5.328125 -8.078125 C 5.023438 -8.296875 4.535156 -8.40625 3.859375 -8.40625 L 3.625 -8.40625 Z M 3.625 -5.796875 "/></g></g></g><g fill="#2f372e" fill-opacity="1"><g transform="translate(183.773959, 142.346418)"><g><path d="M 7.328125 -10.5 L 7.328125 -8.1875 L 5.0625 -8.1875 L 5.0625 0 L 2.34375 0 L 2.34375 -8.1875 L 0.078125 -8.1875 L 0.078125 -10.5 Z M 7.328125 -10.5 "/></g></g></g><g fill="#2f372e" fill-opacity="1"><g transform="translate(191.188879, 142.346418)"><g><path d="M 4.15625 -10.5 L 4.15625 -7.71875 L 5.71875 -8.71875 L 5.71875 -6.6875 L 4.15625 -5.6875 L 4.15625 -2.3125 L 7.421875 -2.3125 L 7.421875 0 L 1.421875 0 L 1.421875 -3.96875 L 0.265625 -3.25 L 0.265625 -5.21875 L 1.421875 -5.953125 L 1.421875 -10.5 Z M 4.15625 -10.5 "/></g></g></g><g fill="#2f372e" fill-opacity="1"><g transform="translate(198.603798, 142.346418)"><g><path d="M 11.96875 -5.4375 C 11.96875 -4.320312 11.71875 -3.320312 11.21875 -2.4375 C 10.71875 -1.550781 10.019531 -0.863281 9.125 -0.375 C 8.238281 0.101562 7.28125 0.34375 6.25 0.34375 C 5.101562 0.34375 4.082031 0.0976562 3.1875 -0.390625 C 2.289062 -0.890625 1.59375 -1.578125 1.09375 -2.453125 C 0.601562 -3.328125 0.359375 -4.28125 0.359375 -5.3125 C 0.359375 -6.269531 0.582031 -7.160156 1.03125 -7.984375 C 1.488281 -8.816406 2.179688 -9.5 3.109375 -10.03125 C 4.035156 -10.570312 5.054688 -10.84375 6.171875 -10.84375 C 7.191406 -10.84375 8.148438 -10.609375 9.046875 -10.140625 C 9.941406 -9.671875 10.648438 -9.019531 11.171875 -8.1875 C 11.703125 -7.363281 11.96875 -6.445312 11.96875 -5.4375 Z M 6.171875 -2.296875 C 7.015625 -2.296875 7.71875 -2.601562 8.28125 -3.21875 C 8.851562 -3.832031 9.140625 -4.566406 9.140625 -5.421875 C 9.140625 -6.148438 8.84375 -6.796875 8.25 -7.359375 C 7.664062 -7.921875 6.96875 -8.203125 6.15625 -8.203125 C 5.382812 -8.203125 4.703125 -7.929688 4.109375 -7.390625 C 3.523438 -6.847656 3.222656 -6.191406 3.203125 -5.421875 C 3.203125 -4.523438 3.488281 -3.78125 4.0625 -3.1875 C 4.632812 -2.59375 5.335938 -2.296875 6.171875 -2.296875 Z M 6.171875 -2.296875 "/></g></g></g><g fill="#2f372e" fill-opacity="1"><g transform="translate(210.94346, 142.346418)"><g><path d="M 4.734375 -10.5 L 6.859375 -4.890625 L 9.125 -10.5 L 11.828125 -10.5 L 13.421875 0 L 10.6875 0 L 9.921875 -6.046875 L 9.90625 -6.046875 L 7.375 0 L 6.296875 0 L 3.890625 -6.046875 L 3.859375 -6.046875 L 2.984375 0 L 0.265625 0 L 2.046875 -10.5 Z M 4.734375 -10.5 "/></g></g></g><g fill="#2f372e" fill-opacity="1"><g transform="translate(224.618638, 142.346418)"><g><path d="M 3.625 -10.5 L 3.625 0 L 0.890625 0 L 0.890625 -10.5 Z M 3.625 -10.5 "/></g></g></g><g fill="#2f372e" fill-opacity="1"><g transform="translate(229.126018, 142.346418)"><g><path d="M 6.859375 -10.5 L 6.859375 -8.1875 L 3.625 -8.1875 L 3.625 -6.4375 L 6.703125 -6.4375 L 6.703125 -4.125 L 3.625 -4.125 L 3.625 -2.3125 L 6.859375 -2.3125 L 6.859375 0 L 0.890625 0 L 0.890625 -10.5 Z M 6.859375 -10.5 "/></g></g></g><g fill="#2f372e" fill-opacity="1"><g transform="translate(236.777435, 142.346418)"><g><path d="M 5.96875 -10.5 L 5.96875 -3.359375 C 5.96875 -2.234375 5.664062 -1.34375 5.0625 -0.6875 C 4.457031 -0.0390625 3.601562 0.28125 2.5 0.28125 C 1.375 0.28125 0.472656 -0.234375 -0.203125 -1.265625 L 1.359375 -2.921875 C 1.804688 -2.328125 2.175781 -2.03125 2.46875 -2.03125 C 2.738281 -2.03125 2.9375 -2.140625 3.0625 -2.359375 C 3.1875 -2.578125 3.25 -2.921875 3.25 -3.390625 L 3.25 -10.5 Z M 5.96875 -10.5 "/></g></g></g><g fill="#2f372e" fill-opacity="1"><g transform="translate(154.03079, 155.103995)"><g><path d="M 6.0625 -10.84375 C 8.28125 -10.84375 9.859375 -9.863281 10.796875 -7.90625 L 8.203125 -6.828125 C 7.992188 -7.347656 7.691406 -7.753906 7.296875 -8.046875 C 6.910156 -8.347656 6.457031 -8.5 5.9375 -8.5 C 5.132812 -8.5 4.476562 -8.175781 3.96875 -7.53125 C 3.457031 -6.894531 3.203125 -6.109375 3.203125 -5.171875 C 3.203125 -4.609375 3.316406 -4.070312 3.546875 -3.5625 C 3.773438 -3.050781 4.097656 -2.644531 4.515625 -2.34375 C 4.929688 -2.039062 5.414062 -1.890625 5.96875 -1.890625 C 6.613281 -1.890625 7.128906 -2.050781 7.515625 -2.375 C 7.898438 -2.707031 8.117188 -3.15625 8.171875 -3.71875 L 5.9375 -3.71875 L 5.9375 -5.859375 L 11.359375 -5.859375 C 11.335938 -4.554688 11.1875 -3.554688 10.90625 -2.859375 C 10.632812 -2.171875 10.25 -1.578125 9.75 -1.078125 C 9.25 -0.585938 8.679688 -0.226562 8.046875 0 C 7.421875 0.226562 6.722656 0.34375 5.953125 0.34375 C 4.285156 0.34375 2.9375 -0.171875 1.90625 -1.203125 C 0.875 -2.234375 0.359375 -3.5625 0.359375 -5.1875 C 0.359375 -6.882812 0.878906 -8.25 1.921875 -9.28125 C 2.960938 -10.320312 4.34375 -10.84375 6.0625 -10.84375 Z M 6.0625 -10.84375 "/></g></g></g><g fill="#2f372e" fill-opacity="1"><g transform="translate(165.744418, 155.103995)"><g><path d="M 5.015625 -10.5 C 6.117188 -10.5 6.992188 -10.21875 7.640625 -9.65625 C 8.296875 -9.09375 8.625 -8.296875 8.625 -7.265625 C 8.625 -6.492188 8.414062 -5.84375 8 -5.3125 C 7.59375 -4.78125 7.035156 -4.441406 6.328125 -4.296875 L 9.625 0 L 6.21875 0 L 3.640625 -4.03125 L 3.625 -4.03125 L 3.625 0 L 0.890625 0 L 0.890625 -10.5 Z M 3.625 -5.796875 L 3.859375 -5.796875 C 4.523438 -5.796875 5.007812 -5.898438 5.3125 -6.109375 C 5.625 -6.328125 5.78125 -6.65625 5.78125 -7.09375 C 5.78125 -7.539062 5.628906 -7.867188 5.328125 -8.078125 C 5.023438 -8.296875 4.535156 -8.40625 3.859375 -8.40625 L 3.625 -8.40625 Z M 3.625 -5.796875 "/></g></g></g><g fill="#2f372e" fill-opacity="1"><g transform="translate(175.204357, 155.103995)"><g><path d="M 6.859375 -10.5 L 6.859375 -8.1875 L 3.625 -8.1875 L 3.625 -6.4375 L 6.703125 -6.4375 L 6.703125 -4.125 L 3.625 -4.125 L 3.625 -2.3125 L 6.859375 -2.3125 L 6.859375 0 L 0.890625 0 L 0.890625 -10.5 Z M 6.859375 -10.5 "/></g></g></g><g fill="#2f372e" fill-opacity="1"><g transform="translate(182.855775, 155.103995)"><g><path d="M 3.625 -10.5 L 3.625 -2.3125 L 6.890625 -2.3125 L 6.890625 0 L 0.890625 0 L 0.890625 -10.5 Z M 3.625 -10.5 "/></g></g></g><g fill="#2f372e" fill-opacity="1"><g transform="translate(189.742055, 155.103995)"><g><path d="M 6.96875 -10.5 L 10.921875 0 L 8 0 L 7.328125 -1.828125 L 3.5625 -1.828125 L 2.84375 0 L -0.0625 0 L 3.984375 -10.5 Z M 4.3125 -3.90625 L 6.578125 -3.90625 L 5.46875 -7.25 L 5.4375 -7.25 Z M 4.3125 -3.90625 "/></g></g></g></svg>